<?xml version="1.0" standalone="no"?>
<!DOCTYPE svg PUBLIC "-//W3C//DTD SVG 20010904//EN"
 "http://www.w3.org/TR/2001/REC-SVG-20010904/DTD/svg10.dtd">
<svg version="1.0" xmlns="http://www.w3.org/2000/svg"
 width="512.000000pt" height="512.000000pt" viewBox="0 0 512.000000 512.000000"
 preserveAspectRatio="xMidYMid meet">

<g transform="translate(0.000000,512.000000) scale(0.100000,-0.100000)"
fill="#000000" stroke="none">
<path d="M1648 4163 c20 -4 22 -9 22 -78 l0 -73 -41 -7 c-24 -4 -52 -18 -68
-34 -15 -14 -17 -18 -5 -8 12 10 44 24 70 31 l49 12 0 80 c0 77 -1 79 -25 80
-22 1 -22 0 -2 -3z"/>
<path d="M1764 4157 c-3 -8 -4 -45 -2 -83 3 -61 5 -69 23 -70 15 -1 16 0 3 3
-15 4 -18 16 -18 78 0 73 0 74 28 78 l27 4 -28 2 c-15 0 -30 -5 -33 -12z"/>
<path d="M1533 4135 c-29 -13 -53 -27 -53 -30 0 -3 14 2 32 11 17 9 47 22 67
29 20 8 29 14 21 14 -8 1 -39 -10 -67 -24z"/>
<path d="M1861 4145 c20 -7 50 -20 67 -29 18 -9 32 -14 32 -11 0 9 -103 55
-120 54 -8 0 1 -6 21 -14z"/>
<path d="M1407 4048 l-54 -53 51 44 c28 24 55 48 61 53 5 4 6 8 2 8 -3 0 -30
-24 -60 -52z"/>
<path d="M2047 4029 c28 -30 58 -70 67 -87 9 -18 19 -32 22 -32 15 0 -45 84
-90 127 l-50 48 51 -56z"/>
<path d="M1847 3985 c52 -22 67 -57 74 -170 l6 -100 1 88 c1 55 -3 100 -12
121 -15 36 -60 76 -85 76 -9 -1 -2 -7 16 -15z"/>
<path d="M1332 3968 c-14 -19 -54 -99 -50 -103 2 -2 17 23 34 56 31 59 35 70
16 47z"/>
<path d="M1516 3908 c-3 -13 -5 -61 -4 -108 l1 -85 7 105 c7 112 6 124 -4 88z"/>
<path d="M2140 3895 c0 -5 5 -17 10 -25 5 -8 10 -10 10 -5 0 6 -5 17 -10 25
-5 8 -10 11 -10 5z"/>
<path d="M1607 3873 c-3 -5 5 -8 18 -8 13 0 21 3 18 8 -2 4 -10 7 -18 7 -8 0
-16 -3 -18 -7z"/>
<path d="M1784 3864 c-18 -14 -18 -14 6 -3 31 14 36 19 24 19 -6 0 -19 -7 -30
-16z"/>
<path d="M1578 3630 c-2 -121 0 -220 5 -220 4 0 7 99 7 220 0 121 -2 220 -5
220 -2 0 -6 -99 -7 -220z"/>
<path d="M1668 3777 c5 -108 9 -122 10 -32 1 44 -2 85 -6 92 -4 7 -6 -20 -4
-60z"/>
<path d="M1763 3800 c0 -25 2 -35 4 -22 2 12 2 32 0 45 -2 12 -4 2 -4 -23z"/>
<path d="M1852 3628 c-1 -144 1 -218 8 -218 12 0 30 43 29 68 0 9 -6 -1 -14
-23 -11 -36 -13 -19 -17 175 l-3 215 -3 -217z"/>
<path d="M1262 3800 c0 -14 2 -19 5 -12 2 6 2 18 0 25 -3 6 -5 1 -5 -13z"/>
<path d="M2172 3800 c0 -14 2 -19 5 -12 2 6 2 18 0 25 -3 6 -5 1 -5 -13z"/>
<path d="M1255 3690 c2 -56 10 -105 25 -142 26 -71 93 -163 146 -202 31 -23
27 -18 -17 25 -94 92 -135 179 -149 319 l-9 85 4 -85z"/>
<path d="M2183 3705 c0 -38 2 -53 4 -32 2 20 2 52 0 70 -2 17 -4 1 -4 -38z"/>
<path d="M1753 3670 c0 -41 2 -58 4 -37 2 20 2 54 0 75 -2 20 -4 3 -4 -38z"/>
<path d="M1521 3683 c-1 -38 21 -192 25 -178 2 6 -3 55 -10 110 -8 55 -14 86
-15 68z"/>
<path d="M1913 3665 c0 -27 2 -38 4 -22 2 15 2 37 0 50 -2 12 -4 0 -4 -28z"/>
<path d="M1683 3585 c0 -44 2 -61 4 -37 2 23 2 59 0 80 -2 20 -4 1 -4 -43z"/>
<path d="M2167 3600 c-11 -56 -50 -131 -102 -195 -27 -33 -36 -49 -21 -35 62
57 146 215 133 253 -2 6 -7 -4 -10 -23z"/>
<path d="M1896 3559 c-4 -28 -5 -53 -3 -56 3 -2 8 19 12 47 4 28 5 53 2 56 -2
3 -7 -19 -11 -47z"/>
<path d="M1743 3520 c0 -41 2 -58 4 -37 2 20 2 54 0 75 -2 20 -4 3 -4 -38z"/>
<path d="M2935 3572 c-100 -34 -192 -106 -224 -174 -11 -22 -11 -22 6 2 69 96
176 163 288 179 50 7 54 9 20 9 -22 1 -63 -6 -90 -16z"/>
<path d="M3128 3583 c12 -2 32 -2 45 0 12 2 2 4 -23 4 -25 0 -35 -2 -22 -4z"/>
<path d="M3208 3573 c7 -3 16 -2 19 1 4 3 -2 6 -13 5 -11 0 -14 -3 -6 -6z"/>
<path d="M3323 3528 c32 -17 83 -56 114 -87 31 -31 44 -40 29 -21 -35 43 -99
96 -148 121 -61 31 -57 21 5 -13z"/>
<path d="M1551 3474 c0 -11 3 -14 6 -6 3 7 2 16 -1 19 -3 4 -6 -2 -5 -13z"/>
<path d="M1690 3450 c0 -22 3 -40 8 -40 4 0 6 18 4 40 -2 22 -6 40 -8 40 -2 0
-4 -18 -4 -40z"/>
<path d="M1074 3465 c-3 -8 -4 -20 -1 -27 3 -7 6 -3 6 9 1 12 9 24 19 26 16 4
16 5 -1 6 -10 0 -20 -6 -23 -14z"/>
<path d="M2323 3468 c-5 -7 -13 -20 -17 -28 -4 -8 1 -5 10 8 9 12 22 22 30 22
7 0 15 -10 17 -22 5 -20 5 -20 4 2 -2 27 -28 38 -44 18z"/>
<path d="M1145 3415 c15 -27 32 -54 38 -60 6 -5 -2 13 -18 40 -15 28 -32 55
-38 60 -6 6 2 -12 18 -40z"/>
<path d="M1731 3424 c0 -11 3 -14 6 -6 3 7 2 16 -1 19 -3 4 -6 -2 -5 -13z"/>
<path d="M3068 3423 c6 -2 18 -2 25 0 6 3 1 5 -13 5 -14 0 -19 -2 -12 -5z"/>
<path d="M1063 3380 c0 -25 2 -35 4 -22 2 12 2 32 0 45 -2 12 -4 2 -4 -23z"/>
<path d="M2280 3400 c-6 -11 -8 -20 -6 -20 3 0 10 9 16 20 6 11 8 20 6 20 -3
0 -10 -9 -16 -20z"/>
<path d="M2373 3380 c0 -25 2 -35 4 -22 2 12 2 32 0 45 -2 12 -4 2 -4 -23z"/>
<path d="M3013 3413 c9 -2 23 -2 30 0 6 3 -1 5 -18 5 -16 0 -22 -2 -12 -5z"/>
<path d="M3133 3413 c9 -2 23 -2 30 0 6 3 -1 5 -18 5 -16 0 -22 -2 -12 -5z"/>
<path d="M2917 3379 c-15 -12 -32 -31 -38 -42 -10 -21 -9 -21 8 1 10 12 32 32
48 42 17 11 26 20 20 20 -5 -1 -22 -10 -38 -21z"/>
<path d="M3253 3370 c25 -16 60 -48 77 -71 16 -23 30 -38 30 -34 0 27 -114
135 -143 135 -6 0 10 -13 36 -30z"/>
<path d="M2250 3350 c-6 -11 -8 -20 -6 -20 3 0 10 9 16 20 6 11 8 20 6 20 -3
0 -10 -9 -16 -20z"/>
<path d="M2686 3355 c-9 -26 -7 -32 5 -12 6 10 9 21 6 23 -2 3 -7 -2 -11 -11z"/>
<path d="M1989 3333 c-13 -16 -12 -17 4 -4 16 13 21 21 13 21 -2 0 -10 -8 -17
-17z"/>
<path d="M3440 3299 c-41 -27 -72 -49 -68 -49 10 0 148 88 148 95 0 7 3 9 -80
-46z"/>
<path d="M1200 3320 c6 -11 13 -20 16 -20 2 0 0 9 -6 20 -6 11 -13 20 -16 20
-2 0 0 -9 6 -20z"/>
<path d="M1045 3245 c-4 -48 -5 -89 -2 -91 2 -3 8 34 12 81 4 48 5 89 2 91 -2
3 -8 -34 -12 -81z"/>
<path d="M2383 3290 c0 -25 2 -35 4 -22 2 12 2 32 0 45 -2 12 -4 2 -4 -23z"/>
<path d="M1470 3315 c0 -10 124 -65 145 -64 11 0 2 6 -20 13 -22 7 -59 23 -82
35 -24 12 -43 19 -43 16z"/>
<path d="M1925 3298 c-22 -12 -58 -27 -80 -34 -22 -7 -31 -13 -20 -13 21 -1
145 54 145 64 0 7 1 7 -45 -17z"/>
<path d="M2190 3248 c-54 -92 -52 -88 -47 -88 3 0 24 33 47 73 54 91 52 87 47
87 -3 0 -24 -33 -47 -72z"/>
<path d="M2664 3284 c-9 -50 0 -195 14 -219 11 -17 11 -16 5 10 -5 17 -8 78
-8 138 0 59 -1 107 -2 107 -1 0 -5 -16 -9 -36z"/>
<path d="M2856 3295 c-3 -9 -6 -22 -5 -28 0 -7 5 -1 10 12 5 13 8 26 5 28 -2
2 -6 -3 -10 -12z"/>
<path d="M1230 3270 c6 -11 13 -20 16 -20 2 0 0 9 -6 20 -6 11 -13 20 -16 20
-2 0 0 -9 6 -20z"/>
<path d="M1678 3243 c23 -2 61 -2 85 0 23 2 4 4 -43 4 -47 0 -66 -2 -42 -4z"/>
<path d="M2845 3192 c5 -89 47 -155 125 -196 8 -5 2 3 -15 18 -16 14 -33 25
-37 26 -18 1 -60 94 -68 152 l-9 63 4 -63z"/>
<path d="M1253 3233 c30 -55 121 -203 124 -203 5 0 9 -7 -62 113 -32 53 -59
97 -62 97 -2 0 -2 -3 0 -7z"/>
<path d="M2393 3200 c0 -25 2 -35 4 -22 2 12 2 32 0 45 -2 12 -4 2 -4 -23z"/>
<path d="M2120 3130 c-6 -11 -8 -20 -6 -20 3 0 10 9 16 20 6 11 8 20 6 20 -3
0 -10 -9 -16 -20z"/>
<path d="M2402 3115 c0 -22 3 -65 8 -95 6 -48 7 -50 8 -15 0 22 -3 65 -8 95
-6 48 -7 50 -8 15z"/>
<path d="M1033 3100 c0 -25 2 -35 4 -22 2 12 2 32 0 45 -2 12 -4 2 -4 -23z"/>
<path d="M2090 3080 c-6 -11 -8 -20 -6 -20 3 0 10 9 16 20 6 11 8 20 6 20 -3
0 -10 -9 -16 -20z"/>
<path d="M1023 3010 c0 -25 2 -35 4 -22 2 12 2 32 0 45 -2 12 -4 2 -4 -23z"/>
<path d="M2030 2978 c-54 -92 -52 -88 -47 -88 3 0 24 33 47 73 54 91 52 87 47
87 -3 0 -24 -33 -47 -72z"/>
<path d="M1202 2980 c0 -63 1 -63 8 -20 4 25 4 54 -1 65 -5 13 -8 -3 -7 -45z"/>
<path d="M2690 3033 c0 -33 128 -168 184 -194 15 -7 14 -4 -4 8 -52 37 -124
110 -152 152 -15 25 -28 40 -28 34z"/>
<path d="M3489 2994 c-11 -26 -18 -49 -15 -51 2 -2 12 17 22 42 15 40 21 46
40 42 13 -2 21 0 18 4 -3 5 -14 9 -25 9 -14 0 -26 -14 -40 -46z"/>
<path d="M1390 3000 c6 -11 13 -20 16 -20 2 0 0 9 -6 20 -6 11 -13 20 -16 20
-2 0 0 -9 6 -20z"/>
<path d="M2216 3004 c-4 -9 -4 -19 -1 -22 2 -3 7 3 11 12 4 9 4 19 1 22 -2 3
-7 -3 -11 -12z"/>
<path d="M3561 3005 c0 -5 6 -21 14 -35 8 -14 14 -20 14 -15 0 6 -6 21 -14 35
-8 14 -14 21 -14 15z"/>
<path d="M2990 2985 c0 -7 81 -47 86 -43 2 3 -17 14 -41 26 -25 12 -45 20 -45
17z"/>
<path d="M1220 2976 c0 -10 70 -146 75 -146 3 0 -11 33 -31 73 -38 74 -44 85
-44 73z"/>
<path d="M1420 2950 c6 -11 13 -20 16 -20 2 0 0 9 -6 20 -6 11 -13 20 -16 20
-2 0 0 -9 6 -20z"/>
<path d="M2152 2867 c-29 -56 -46 -94 -38 -83 20 25 99 177 94 181 -1 2 -27
-43 -56 -98z"/>
<path d="M1013 2920 c0 -25 2 -35 4 -22 2 12 2 32 0 45 -2 12 -4 2 -4 -23z"/>
<path d="M2233 2905 c0 -33 2 -45 4 -27 2 18 2 45 0 60 -2 15 -4 0 -4 -33z"/>
<path d="M2423 2920 c0 -25 2 -35 4 -22 2 12 2 32 0 45 -2 12 -4 2 -4 -23z"/>
<path d="M3594 2930 c9 -32 39 -101 43 -97 2 3 -8 29 -22 58 -14 30 -23 47
-21 39z"/>
<path d="M3160 2900 c30 -16 60 -29 65 -29 6 0 -15 13 -45 29 -30 16 -59 29
-65 29 -5 0 15 -13 45 -29z"/>
<path d="M3456 2915 c-9 -26 -7 -32 5 -12 6 10 9 21 6 23 -2 3 -7 -2 -11 -11z"/>
<path d="M1443 2913 c30 -55 90 -153 94 -153 5 0 7 -4 -47 88 -23 39 -44 72
-47 72 -2 0 -2 -3 0 -7z"/>
<path d="M1186 2824 c-4 -47 -5 -88 -3 -91 3 -2 8 34 12 82 4 47 5 88 3 91 -3
2 -8 -34 -12 -82z"/>
<path d="M1960 2860 c-6 -11 -8 -20 -6 -20 3 0 10 9 16 20 6 11 8 20 6 20 -3
0 -10 -9 -16 -20z"/>
<path d="M3426 2840 c-22 -56 -19 -65 5 -11 11 24 18 46 15 48 -2 2 -11 -14
-20 -37z"/>
<path d="M1003 2830 c0 -25 2 -35 4 -22 2 12 2 32 0 45 -2 12 -4 2 -4 -23z"/>
<path d="M2433 2830 c0 -25 2 -35 4 -22 2 12 2 32 0 45 -2 12 -4 2 -4 -23z"/>
<path d="M3241 2866 c10 -9 69 -36 69 -32 0 6 -55 36 -66 36 -4 0 -5 -2 -3 -4z"/>
<path d="M2243 2800 c0 -25 2 -35 4 -22 2 12 2 32 0 45 -2 12 -4 2 -4 -23z"/>
<path d="M1930 2810 c-6 -11 -8 -20 -6 -20 3 0 10 9 16 20 6 11 8 20 6 20 -3
0 -10 -9 -16 -20z"/>
<path d="M2900 2825 c0 -7 141 -77 146 -73 2 2 -30 21 -71 41 -41 20 -75 35
-75 32z"/>
<path d="M1310 2800 c6 -11 13 -20 16 -20 2 0 0 9 -6 20 -6 11 -13 20 -16 20
-2 0 0 -9 6 -20z"/>
<path d="M3355 2805 c11 -9 29 -21 40 -26 l20 -10 -20 16 c-11 9 -29 21 -40
26 l-20 10 20 -16z"/>
<path d="M3641 2815 c0 -5 6 -21 14 -35 8 -14 14 -20 14 -15 0 6 -6 21 -14 35
-8 14 -14 21 -14 15z"/>
<path d="M985 2695 c-4 -48 -5 -89 -2 -91 2 -3 8 34 12 81 4 48 5 89 2 91 -2
3 -8 -34 -12 -81z"/>
<path d="M1855 2683 c-71 -120 -67 -113 -62 -113 3 0 30 44 62 98 71 119 67
112 62 112 -3 0 -30 -44 -62 -97z"/>
<path d="M2442 2750 c0 -19 8 -102 18 -185 12 -98 18 -131 19 -95 0 30 -4 89
-10 130 -25 180 -26 186 -27 150z"/>
<path d="M1355 2725 c15 -27 32 -54 38 -60 6 -5 -2 13 -18 40 -15 28 -32 55
-38 60 -6 6 2 -12 18 -40z"/>
<path d="M2050 2688 c-50 -85 -57 -100 -36 -74 9 11 17 25 18 30 2 6 5 -344 8
-779 l5 -790 500 0 500 0 0 85 0 85 -413 0 -412 0 410 -2 410 -3 0 -80 0 -80
-495 0 -495 0 0 785 0 784 103 4 102 3 -102 2 c-57 1 -103 5 -103 8 0 3 12 25
26 50 14 24 24 44 21 44 -3 0 -24 -33 -47 -72z"/>
<path d="M1550 2730 c6 -11 13 -20 16 -20 2 0 0 9 -6 20 -6 11 -13 20 -16 20
-2 0 0 -9 6 -20z"/>
<path d="M2253 2715 c0 -22 2 -30 4 -17 2 12 2 30 0 40 -3 9 -5 -1 -4 -23z"/>
<path d="M3670 2745 c0 -5 5 -17 10 -25 5 -8 10 -10 10 -5 0 6 -5 17 -10 25
-5 8 -10 11 -10 5z"/>
<path d="M3175 2687 c145 -76 157 -85 144 -109 -6 -11 -9 -22 -6 -24 2 -2 9 7
15 21 10 23 8 27 -31 53 -44 31 -201 112 -214 112 -5 -1 37 -24 92 -53z"/>
<path d="M1173 2680 c0 -25 2 -35 4 -22 2 12 2 32 0 45 -2 12 -4 2 -4 -23z"/>
<path d="M1580 2680 c6 -11 13 -20 16 -20 2 0 0 9 -6 20 -6 11 -13 20 -16 20
-2 0 0 -9 6 -20z"/>
<path d="M3527 2694 c-4 -4 -7 -14 -7 -23 0 -11 3 -12 11 -4 6 6 10 16 7 23
-2 6 -7 8 -11 4z"/>
<path d="M3691 2695 c0 -5 6 -21 14 -35 8 -14 14 -20 14 -15 0 6 -6 21 -14 35
-8 14 -14 21 -14 15z"/>
<path d="M2261 2614 c1 -32 5 -72 9 -89 5 -18 6 4 3 55 -6 99 -14 120 -12 34z"/>
<path d="M2740 2653 l269 -3 4 -73 3 -72 0 75 -1 75 -273 0 -272 0 270 -2z"/>
<path d="M3538 2654 c-4 -5 0 -18 8 -29 15 -20 17 -12 5 19 -4 11 -10 15 -13
10z"/>
<path d="M1425 2605 c15 -27 32 -54 38 -60 6 -5 -2 13 -18 40 -15 28 -32 55
-38 60 -6 6 2 -12 18 -40z"/>
<path d="M1625 2605 c15 -27 32 -54 38 -60 6 -5 -2 13 -18 40 -15 28 -32 55
-38 60 -6 6 2 -12 18 -40z"/>
<path d="M1163 2590 c0 -25 2 -35 4 -22 2 12 2 32 0 45 -2 12 -4 2 -4 -23z"/>
<path d="M3724 2620 c9 -32 39 -101 43 -97 2 3 -8 29 -22 58 -14 30 -23 47
-21 39z"/>
<path d="M973 2550 c0 -25 2 -35 4 -22 2 12 2 32 0 45 -2 12 -4 2 -4 -23z"/>
<path d="M1950 2518 c-54 -92 -52 -88 -47 -88 3 0 24 33 47 73 54 91 52 87 47
87 -3 0 -24 -33 -47 -72z"/>
<path d="M1754 2509 c-14 -28 -24 -53 -22 -55 2 -2 16 21 31 51 15 30 25 55
22 55 -3 0 -16 -23 -31 -51z"/>
<path d="M1153 2500 c0 -25 2 -35 4 -22 2 12 2 32 0 45 -2 12 -4 2 -4 -23z"/>
<path d="M3296 2525 c-9 -26 -7 -32 5 -12 6 10 9 21 6 23 -2 3 -7 -2 -11 -11z"/>
<path d="M1495 2485 c15 -27 32 -54 38 -60 6 -5 -2 13 -18 40 -15 28 -32 55
-38 60 -6 6 2 -12 18 -40z"/>
<path d="M3595 2507 c3 -10 5 -30 5 -45 0 -18 3 -23 11 -15 7 7 6 20 -6 44 -8
19 -13 26 -10 16z"/>
<path d="M3774 2500 c9 -32 39 -101 43 -97 2 3 -8 29 -22 58 -14 30 -23 47
-21 39z"/>
<path d="M963 2460 c0 -25 2 -35 4 -22 2 12 2 32 0 45 -2 12 -4 2 -4 -23z"/>
<path d="M2283 2450 c0 -25 2 -35 4 -22 2 12 2 32 0 45 -2 12 -4 2 -4 -23z"/>
<path d="M3261 2439 c-12 -29 -20 -54 -18 -56 2 -2 14 20 26 48 12 29 20 54
18 56 -2 2 -14 -20 -26 -48z"/>
<path d="M1700 2464 c0 -6 7 -19 15 -30 8 -10 14 -14 14 -9 0 6 -6 19 -14 29
-8 11 -15 15 -15 10z"/>
<path d="M1143 2410 c0 -25 2 -35 4 -22 2 12 2 32 0 45 -2 12 -4 2 -4 -23z"/>
<path d="M3615 2417 c-4 -14 -5 -32 -2 -39 3 -7 6 1 6 17 1 23 4 27 11 15 5
-8 10 -10 10 -5 0 6 -4 17 -9 24 -8 12 -11 9 -16 -12z"/>
<path d="M1850 2348 c-54 -92 -52 -88 -47 -88 3 0 24 33 47 73 54 91 52 87 47
87 -3 0 -24 -33 -47 -72z"/>
<path d="M3413 2391 c-6 -17 -9 -39 -6 -50 3 -11 0 -28 -7 -38 -10 -15 -10
-14 -6 12 4 24 2 22 -15 -14 -10 -24 -17 -46 -15 -49 3 -2 0 -9 -5 -16 -6 -6
-43 -93 -83 -193 l-74 -183 328 0 328 0 -36 90 c-19 49 -37 88 -39 86 -2 -2
10 -38 27 -80 16 -42 30 -79 30 -81 0 -3 -140 -5 -311 -5 l-310 0 7 23 c21 68
44 106 58 101 42 -16 232 112 268 181 6 11 -15 -8 -46 -42 -40 -43 -79 -73
-128 -98 -67 -33 -98 -42 -98 -29 0 14 84 221 95 234 27 32 46 83 41 105 -3
13 -1 25 5 27 6 2 9 14 7 27 -3 22 -4 21 -15 -8z m-32 -128 c-12 -20 -14 -14
-5 12 4 9 9 14 11 11 3 -2 0 -13 -6 -23z"/>
<path d="M953 2370 c0 -25 2 -35 4 -22 2 12 2 32 0 45 -2 12 -4 2 -4 -23z"/>
<path d="M1550 2390 c6 -11 13 -20 16 -20 2 0 0 9 -6 20 -6 11 -13 20 -16 20
-2 0 0 -9 6 -20z"/>
<path d="M2483 2370 c0 -25 2 -35 4 -22 2 12 2 32 0 45 -2 12 -4 2 -4 -23z"/>
<path d="M2293 2360 c0 -25 2 -35 4 -22 2 12 2 32 0 45 -2 12 -4 2 -4 -23z"/>
<path d="M3640 2385 c0 -5 5 -17 10 -25 5 -8 10 -10 10 -5 0 6 -5 17 -10 25
-5 8 -10 11 -10 5z"/>
<path d="M3821 2385 c0 -5 6 -21 14 -35 8 -14 14 -20 14 -15 0 6 -6 21 -14 35
-8 14 -14 21 -14 15z"/>
<path d="M3226 2355 c-9 -26 -7 -32 5 -12 6 10 9 21 6 23 -2 3 -7 -2 -11 -11z"/>
<path d="M1125 2285 c-4 -42 -5 -79 -2 -81 2 -3 8 29 12 71 4 42 5 79 2 81 -2
3 -8 -29 -12 -71z"/>
<path d="M1585 2330 c9 -16 18 -30 21 -30 2 0 -2 14 -11 30 -9 17 -18 30 -21
30 -2 0 2 -13 11 -30z"/>
<path d="M2610 2335 c-25 -13 -41 -24 -37 -25 11 0 87 39 87 45 0 7 0 7 -50
-20z"/>
<path d="M2740 2331 c5 -11 15 -23 21 -27 6 -3 3 5 -6 20 -20 30 -30 35 -15 7z"/>
<path d="M3602 2325 c0 -16 2 -22 5 -12 2 9 2 23 0 30 -3 6 -5 -1 -5 -18z"/>
<path d="M3660 2335 c0 -5 5 -17 10 -25 5 -8 10 -10 10 -5 0 6 -5 17 -10 25
-5 8 -10 11 -10 5z"/>
<path d="M935 2235 c-4 -48 -5 -89 -2 -91 2 -3 8 34 12 81 4 48 5 89 2 91 -2
3 -8 -34 -12 -81z"/>
<path d="M2493 2280 c0 -25 2 -35 4 -22 2 12 2 32 0 45 -2 12 -4 2 -4 -23z"/>
<path d="M3206 2305 c-9 -26 -7 -32 5 -12 6 10 9 21 6 23 -2 3 -7 -2 -11 -11z"/>
<path d="M3850 2315 c0 -5 5 -17 10 -25 5 -8 10 -10 10 -5 0 6 -5 17 -10 25
-5 8 -10 11 -10 5z"/>
<path d="M2303 2270 c0 -25 2 -35 4 -22 2 12 2 32 0 45 -2 12 -4 2 -4 -23z"/>
<path d="M2560 2294 c0 -6 7 -19 16 -30 14 -18 14 -18 3 6 -14 31 -19 36 -19
24z"/>
<path d="M1620 2270 c6 -11 13 -20 16 -20 2 0 0 9 -6 20 -6 11 -13 20 -16 20
-2 0 0 -9 6 -20z"/>
<path d="M2795 2261 c31 -35 111 -91 129 -91 6 0 -9 12 -34 26 -25 14 -63 42
-85 62 -39 36 -39 37 -10 3z"/>
<path d="M3680 2285 c0 -5 5 -17 10 -25 5 -8 10 -10 10 -5 0 6 -5 17 -10 25
-5 8 -10 11 -10 5z"/>
<path d="M3186 2255 c-9 -26 -7 -32 5 -12 6 10 9 21 6 23 -2 3 -7 -2 -11 -11z"/>
<path d="M3871 2265 c0 -5 6 -21 14 -35 8 -14 14 -20 14 -15 0 6 -6 21 -14 35
-8 14 -14 21 -14 15z"/>
<path d="M3576 2245 c-9 -26 -7 -32 5 -12 6 10 9 21 6 23 -2 3 -7 -2 -11 -11z"/>
<path d="M1760 2196 c-17 -30 -36 -57 -43 -59 -9 -4 -9 -6 0 -6 12 -1 42 40
72 97 24 46 1 20 -29 -32z"/>
<path d="M1667 2191 c15 -28 29 -48 31 -46 4 4 -48 95 -55 95 -2 0 8 -22 24
-49z"/>
<path d="M3700 2235 c0 -5 5 -17 10 -25 5 -8 10 -10 10 -5 0 6 -5 17 -10 25
-5 8 -10 11 -10 5z"/>
<path d="M2503 2190 c0 -25 2 -35 4 -22 2 12 2 32 0 45 -2 12 -4 2 -4 -23z"/>
<path d="M2313 2180 c0 -25 2 -35 4 -22 2 12 2 32 0 45 -2 12 -4 2 -4 -23z"/>
<path d="M3138 2142 c-20 -42 -44 -96 -53 -119 -16 -39 -21 -43 -54 -44 l-36
-2 37 -6 37 -6 -30 -69 c-16 -38 -27 -71 -24 -74 3 -3 5 -3 5 -1 0 3 36 92 80
199 44 106 79 195 77 196 -2 2 -19 -32 -39 -74z"/>
<path d="M2625 2190 c10 -11 20 -20 23 -20 3 0 -3 9 -13 20 -10 11 -20 20 -23
20 -3 0 3 -9 13 -20z"/>
<path d="M3904 2190 c9 -32 39 -101 43 -97 2 3 -8 29 -22 58 -14 30 -23 47
-21 39z"/>
<path d="M1113 2150 c0 -25 2 -35 4 -22 2 12 2 32 0 45 -2 12 -4 2 -4 -23z"/>
<path d="M3720 2185 c0 -5 5 -17 10 -25 5 -8 10 -10 10 -5 0 6 -5 17 -10 25
-5 8 -10 11 -10 5z"/>
<path d="M2695 2116 c50 -46 138 -98 185 -110 14 -4 -6 8 -45 27 -38 19 -97
55 -130 81 l-60 48 50 -46z"/>
<path d="M2978 2153 c7 -3 16 -2 19 1 4 3 -2 6 -13 5 -11 0 -14 -3 -6 -6z"/>
<path d="M3028 2143 c12 -2 32 -2 45 0 12 2 2 4 -23 4 -25 0 -35 -2 -22 -4z"/>
<path d="M2513 2100 c0 -25 2 -35 4 -22 2 12 2 32 0 45 -2 12 -4 2 -4 -23z"/>
<path d="M3740 2135 c0 -5 5 -17 10 -25 5 -8 10 -10 10 -5 0 6 -5 17 -10 25
-5 8 -10 11 -10 5z"/>
<path d="M923 2090 c0 -25 2 -35 4 -22 2 12 2 32 0 45 -2 12 -4 2 -4 -23z"/>
<path d="M2323 2090 c0 -25 2 -35 4 -22 2 12 2 32 0 45 -2 12 -4 2 -4 -23z"/>
<path d="M1103 2060 c0 -25 2 -35 4 -22 2 12 2 32 0 45 -2 12 -4 2 -4 -23z"/>
<path d="M3760 2085 c0 -5 5 -17 10 -25 5 -8 10 -10 10 -5 0 6 -5 17 -10 25
-5 8 -10 11 -10 5z"/>
<path d="M3951 2075 c0 -5 6 -21 14 -35 8 -14 14 -20 14 -15 0 6 -6 21 -14 35
-8 14 -14 21 -14 15z"/>
<path d="M2527 1968 l5 -87 -89 -4 -88 -3 88 -2 c68 -2 89 1 93 12 3 8 1 50
-5 93 l-10 78 6 -87z"/>
<path d="M913 2000 c0 -25 2 -35 4 -22 2 12 2 32 0 45 -2 12 -4 2 -4 -23z"/>
<path d="M2333 2000 c0 -25 2 -35 4 -22 2 12 2 32 0 45 -2 12 -4 2 -4 -23z"/>
<path d="M1093 1970 c0 -25 2 -35 4 -22 2 12 2 32 0 45 -2 12 -4 2 -4 -23z"/>
<path d="M3980 2005 c0 -5 5 -17 10 -25 5 -8 10 -10 10 -5 0 6 -5 17 -10 25
-5 8 -10 11 -10 5z"/>
<path d="M2925 1990 c19 -8 73 -14 64 -6 -2 2 -22 6 -44 9 -28 5 -34 4 -20 -3z"/>
<path d="M4001 1955 c0 -5 6 -21 14 -35 8 -14 14 -20 14 -15 0 6 -6 21 -14 35
-8 14 -14 21 -14 15z"/>
<path d="M904 1910 l1 -35 90 0 c86 0 90 1 91 23 1 18 1 19 -3 2 -4 -18 -12
-20 -88 -20 l-84 0 -4 33 c-4 32 -4 32 -3 -3z"/>
<path d="M2342 1920 c0 -19 2 -27 5 -17 2 9 2 25 0 35 -3 9 -5 1 -5 -18z"/>
<path d="M4034 1880 c9 -32 39 -101 43 -97 2 3 -8 29 -22 58 -14 30 -23 47
-21 39z"/>
<path d="M2996 1795 c-9 -26 -7 -32 5 -12 6 10 9 21 6 23 -2 3 -7 -2 -11 -11z"/>
<path d="M4081 1765 c0 -5 6 -21 14 -35 8 -14 14 -20 14 -15 0 6 -6 21 -14 35
-8 14 -14 21 -14 15z"/>
<path d="M2976 1745 c-9 -26 -7 -32 5 -12 6 10 9 21 6 23 -2 3 -7 -2 -11 -11z"/>
<path d="M2941 1659 c-12 -29 -20 -54 -18 -56 2 -2 14 20 26 48 12 29 20 54
18 56 -2 2 -14 -20 -26 -48z"/>
<path d="M3135 1689 c-4 -6 -5 -12 -2 -15 2 -3 7 2 10 11 7 17 1 20 -8 4z"/>
<path d="M3348 1693 c106 -2 277 -2 380 0 103 1 16 2 -193 2 -209 0 -293 -1
-187 -2z"/>
<path d="M4110 1695 c0 -5 5 -17 10 -25 5 -8 10 -10 10 -5 0 6 -5 17 -10 25
-5 8 -10 11 -10 5z"/>
<path d="M3930 1665 c0 -5 5 -17 10 -25 5 -8 10 -10 10 -5 0 6 -5 17 -10 25
-5 8 -10 11 -10 5z"/>
<path d="M3116 1645 c-9 -26 -7 -32 5 -12 6 10 9 21 6 23 -2 3 -7 -2 -11 -11z"/>
<path d="M4131 1645 c0 -5 6 -21 14 -35 8 -14 14 -20 14 -15 0 6 -6 21 -14 35
-8 14 -14 21 -14 15z"/>
<path d="M2342 1613 c70 -2 187 -2 260 0 73 1 16 3 -127 3 -143 0 -203 -2
-133 -3z"/>
<path d="M3950 1615 c0 -5 5 -17 10 -25 5 -8 10 -10 10 -5 0 6 -5 17 -10 25
-5 8 -10 11 -10 5z"/>
<path d="M3096 1595 c-9 -26 -7 -32 5 -12 6 10 9 21 6 23 -2 3 -7 -2 -11 -11z"/>
<path d="M2906 1575 c-9 -26 -7 -32 5 -12 6 10 9 21 6 23 -2 3 -7 -2 -11 -11z"/>
<path d="M4164 1570 c9 -32 39 -101 43 -97 2 3 -8 29 -22 58 -14 30 -23 47
-21 39z"/>
<path d="M3970 1565 c0 -5 5 -17 10 -25 5 -8 10 -10 10 -5 0 6 -5 17 -10 25
-5 8 -10 11 -10 5z"/>
<path d="M3060 1501 l-22 -60 -84 -4 -84 -3 87 0 87 1 23 59 c13 32 22 60 20
63 -2 2 -14 -23 -27 -56z"/>
<path d="M2876 1500 c-22 -56 -19 -65 5 -11 11 24 18 46 15 48 -2 2 -11 -14
-20 -37z"/>
<path d="M3990 1515 c0 -5 5 -17 10 -25 5 -8 10 -10 10 -5 0 6 -5 17 -10 25
-5 8 -10 11 -10 5z"/>
<path d="M4210 1452 c0 -8 -30 -13 -92 -14 l-93 -2 89 -3 c82 -4 121 5 103 24
-4 3 -7 1 -7 -5z"/>
<path d="M3352 1353 c-15 -16 -17 -19 -4 -8 13 11 46 22 75 26 l52 6 -47 2
c-40 1 -53 -4 -76 -26z"/>
<path d="M3640 1335 c-17 -25 -29 -45 -26 -45 3 0 17 18 32 39 21 32 33 41 62
44 l37 4 -37 1 c-33 2 -40 -2 -68 -43z"/>
<path d="M3960 1373 c0 -5 35 -7 77 -5 137 5 151 9 36 10 -62 1 -113 -1 -113
-5z"/>
<path d="M3480 1366 c0 -3 9 -10 20 -16 11 -6 20 -8 20 -6 0 3 -9 10 -20 16
-11 6 -20 8 -20 6z"/>
<path d="M3752 1268 c-1 -60 1 -108 6 -108 4 0 6 33 4 72 -5 132 -9 145 -10
36z"/>
<path d="M3891 1363 c-1 -6 -4 -20 -7 -30 -5 -17 -5 -17 6 0 6 10 9 23 6 30
-3 9 -5 9 -5 0z"/>
<path d="M4191 1344 c0 -11 3 -14 6 -6 3 7 2 16 -1 19 -3 4 -6 -2 -5 -13z"/>
<path d="M3529 1313 c24 -49 8 -102 -57 -180 l-34 -43 48 1 c48 2 48 2 12 8
l-38 6 27 33 c15 20 29 29 32 23 4 -6 12 -1 20 12 13 20 13 21 -2 8 -21 -16
-21 -5 -2 29 19 33 19 82 -1 106 -15 18 -15 18 -5 -3z"/>
<path d="M3932 1293 c-15 -48 -8 -55 8 -8 7 20 10 38 8 41 -3 2 -10 -13 -16
-33z"/>
<path d="M3861 1279 c-6 -18 -9 -34 -7 -36 2 -2 9 10 15 28 6 18 9 34 7 36 -2
2 -9 -10 -15 -28z"/>
<path d="M3396 1292 c-3 -5 6 -7 20 -4 16 3 30 -1 36 -9 8 -12 9 -11 5 1 -4
17 -52 26 -61 12z"/>
<path d="M3302 1270 c0 -14 2 -19 5 -12 2 6 2 18 0 25 -3 6 -5 1 -5 -13z"/>
<path d="M4018 1283 c28 -2 52 -6 52 -9 0 -2 -23 -50 -51 -105 -27 -56 -49
-103 -47 -105 2 -2 29 48 60 110 l56 113 -61 0 c-60 0 -61 -1 -9 -4z"/>
<path d="M4102 1154 c-34 -68 -62 -128 -61 -132 0 -4 29 51 65 122 36 70 64
130 62 132 -2 2 -32 -53 -66 -122z"/>
<path d="M3451 1244 c0 -11 3 -14 6 -6 3 7 2 16 -1 19 -3 4 -6 -2 -5 -13z"/>
<path d="M3643 1205 c-29 -43 -29 -45 2 -45 23 0 25 4 25 40 0 22 -1 40 -2 40
-2 0 -13 -16 -25 -35z m17 -15 c0 -11 -7 -20 -15 -20 -13 0 -13 3 -3 20 7 11
14 20 15 20 2 0 3 -9 3 -20z"/>
<path d="M3901 1209 c-6 -18 -9 -34 -7 -36 2 -2 9 10 15 28 6 18 9 34 7 36 -2
2 -9 -10 -15 -28z"/>
<path d="M3831 1199 c-6 -18 -9 -34 -7 -36 2 -2 9 10 15 28 6 18 9 34 7 36 -2
2 -9 -10 -15 -28z"/>
<path d="M3367 1135 c-108 -116 -106 -120 53 -120 l125 0 3 32 c3 31 5 32 55
36 l52 3 -57 2 -58 2 0 -35 0 -35 -120 0 c-145 0 -150 7 -64 90 48 48 102 111
92 109 -2 0 -38 -38 -81 -84z"/>
<path d="M3871 1129 c-6 -18 -9 -34 -7 -36 2 -2 9 10 15 28 6 18 9 34 7 36 -2
2 -9 -10 -15 -28z"/>
<path d="M3781 1123 c0 -17 3 -34 8 -37 9 -6 35 54 27 62 -3 2 -8 -9 -13 -24
l-7 -29 -7 30 -7 30 -1 -32z"/>
<path d="M3663 1055 c0 -22 2 -30 4 -17 2 12 2 30 0 40 -3 9 -5 -1 -4 -23z"/>
<path d="M3752 1060 c-2 -53 13 -69 27 -29 6 18 9 34 7 37 -3 2 -9 -9 -13 -24
-8 -29 -8 -29 -14 11 l-6 40 -1 -35z"/>
<path d="M3841 1049 c-6 -18 -9 -34 -7 -36 2 -2 9 10 15 28 6 18 9 34 7 36 -2
2 -9 -10 -15 -28z"/>
<path d="M3960 1041 c0 -12 59 -45 67 -38 2 3 -5 8 -16 12 -12 3 -28 13 -36
21 -8 9 -15 11 -15 5z"/>
<path d="M3693 1013 c9 -2 25 -2 35 0 9 3 1 5 -18 5 -19 0 -27 -2 -17 -5z"/>
<path d="M3815 981 c-3 -12 -17 -21 -33 -24 l-27 -4 27 -2 c18 -1 31 6 38 20
7 11 9 23 7 26 -3 2 -8 -5 -12 -16z"/>
</g>
</svg>
